<?xml version="1.0" encoding="UTF-8" standalone="no"?>
<!-- Created with Inkscape (http://www.inkscape.org/) -->

<svg
   xmlns:dc="http://purl.org/dc/elements/1.1/"
   xmlns:cc="http://creativecommons.org/ns#"
   xmlns:rdf="http://www.w3.org/1999/02/22-rdf-syntax-ns#"
   xmlns:svg="http://www.w3.org/2000/svg"
   xmlns="http://www.w3.org/2000/svg"
   xmlns:xlink="http://www.w3.org/1999/xlink"
   xmlns:sodipodi="http://sodipodi.sourceforge.net/DTD/sodipodi-0.dtd"
   xmlns:inkscape="http://www.inkscape.org/namespaces/inkscape"
   width="400"
   height="400"
   id="svg2"
   version="1.1"
   inkscape:version="0.48.4 r9939"
   sodipodi:docname="shape.svg">
  <sodipodi:namedview
     id="base"
     pagecolor="#ffffff"
     bordercolor="#666666"
     borderopacity="1.0"
     inkscape:pageopacity="0"
     inkscape:pageshadow="2"
     inkscape:zoom="0.98994949"
     inkscape:cx="114.94218"
     inkscape:cy="188.21035"
     inkscape:document-units="px"
     inkscape:current-layer="layer1"
     showgrid="false"
     inkscape:window-width="1366"
     inkscape:window-height="706"
     inkscape:window-x="0"
     inkscape:window-y="27"
     inkscape:window-maximized="1"
     fit-margin-top="0"
     fit-margin-left="0"
     fit-margin-right="0"
     fit-margin-bottom="0" />
  <defs
     id="defs4">
    <linearGradient
       id="linearGradient4692">
      <stop
         style="stop-color:#ff0000;stop-opacity:1;"
         offset="0"
         id="stop4694" />
      <stop
         id="stop6146"
         offset="0.5"
         style="stop-color:#ff85eb;stop-opacity:1;" />
      <stop
         style="stop-color:#000fd7;stop-opacity:1;"
         offset="1"
         id="stop4696" />
    </linearGradient>
    <radialGradient
       inkscape:collect="always"
       xlink:href="#linearGradient4692"
       id="radialGradient6144"
       cx="677.77667"
       cy="828.5202"
       fx="677.77667"
       fy="828.5202"
       r="195.27924"
       gradientTransform="matrix(1,0,0,1.0040488,0,-3.2485807)"
       gradientUnits="userSpaceOnUse" />
  </defs>
  <metadata
     id="metadata7">
    <rdf:RDF>
      <cc:Work
         rdf:about="">
        <dc:format>image/svg+xml</dc:format>
        <dc:type
           rdf:resource="http://purl.org/dc/dcmitype/StillImage" />
        <dc:title />
      </cc:Work>
    </rdf:RDF>
  </metadata>
  <g
     inkscape:label="Layer 1"
     inkscape:groupmode="layer"
     id="layer1"
     transform="translate(-39.989418,-571.85393)">
    <g
       transform="translate(833.78544,319.51329)"
       inkscape:label="Great Stellated Dodecahedron :x0.00:x0.00:x0.00:x0.00:x0.00:x0.00"
       id="g3760" />
    <g
       style="fill:none;stroke:#76d735;stroke-width:0.9710412;stroke-miterlimit:4;stroke-opacity:1;stroke-dasharray:none"
       transform="matrix(1.0298224,0,0,1.0298224,239.98942,771.85393)"
       inkscape:label="Small Triambic Icosahedron :x0.00:x0.00:x0.00:x0.00:x0.00:x0.00"
       id="g3906">
      <path
         inkscape:connector-curvature="0"
         d="M 30.7768,94.7214 68.8191,50 26.2866,80.9017 z"
         style="fill:none;stroke:#76d735;stroke-width:0.9710412;stroke-linejoin:round;stroke-miterlimit:4;stroke-opacity:1;stroke-dasharray:none"
         inkscape:label="Face:45"
         id="path3908" />
      <path
         inkscape:connector-curvature="0"
         d="m 30.7768,94.7214 -4.4902,-13.8197 -52.5732,0 z"
         style="fill:none;stroke:#76d735;stroke-width:0.9710412;stroke-linejoin:round;stroke-miterlimit:4;stroke-opacity:1;stroke-dasharray:none"
         inkscape:label="Face:46"
         id="path3910" />
      <path
         inkscape:connector-curvature="0"
         d="M 99.5959,0 68.8191,-50 85.0651,0 z"
         style="fill:none;stroke:#76d735;stroke-width:0.9710412;stroke-linejoin:round;stroke-miterlimit:4;stroke-opacity:1;stroke-dasharray:none"
         inkscape:label="Face:48"
         id="path3912" />
      <path
         inkscape:connector-curvature="0"
         d="M 99.5959,0 85.0651,0 68.8191,50 z"
         style="fill:none;stroke:#76d735;stroke-width:0.9710412;stroke-linejoin:round;stroke-miterlimit:4;stroke-opacity:1;stroke-dasharray:none"
         inkscape:label="Face:49"
         id="path3914" />
      <path
         inkscape:connector-curvature="0"
         d="m 30.7768,-94.7214 -57.0634,13.8197 52.5732,0 z"
         style="fill:none;stroke:#76d735;stroke-width:0.9710412;stroke-linejoin:round;stroke-miterlimit:4;stroke-opacity:1;stroke-dasharray:none"
         inkscape:label="Face:51"
         id="path3916" />
      <path
         inkscape:connector-curvature="0"
         d="M 30.7768,-94.7214 26.2866,-80.9017 68.8191,-50 z"
         style="fill:none;stroke:#76d735;stroke-width:0.9710412;stroke-linejoin:round;stroke-miterlimit:4;stroke-opacity:1;stroke-dasharray:none"
         inkscape:label="Face:52"
         id="path3918" />
      <path
         inkscape:connector-curvature="0"
         d="M -80.5748,-58.541 -85.0651,0 l 16.246,-50 z"
         style="fill:none;stroke:#76d735;stroke-width:0.9710412;stroke-linejoin:round;stroke-miterlimit:4;stroke-opacity:1;stroke-dasharray:none"
         inkscape:label="Face:54"
         id="path3920" />
      <path
         inkscape:connector-curvature="0"
         d="M -80.5748,-58.541 -68.8191,-50 -26.2866,-80.9017 z"
         style="fill:none;stroke:#76d735;stroke-width:0.9710412;stroke-linejoin:round;stroke-miterlimit:4;stroke-opacity:1;stroke-dasharray:none"
         inkscape:label="Face:55"
         id="path3922" />
      <path
         inkscape:connector-curvature="0"
         d="M -80.5748,58.541 -26.2866,80.9017 -68.8191,50 z"
         style="fill:none;stroke:#76d735;stroke-width:0.9710412;stroke-linejoin:round;stroke-miterlimit:4;stroke-opacity:1;stroke-dasharray:none"
         inkscape:label="Face:57"
         id="path3924" />
      <path
         inkscape:connector-curvature="0"
         d="M -80.5748,58.541 -68.8191,50 -85.0651,0 z"
         style="fill:none;stroke:#76d735;stroke-width:0.9710412;stroke-linejoin:round;stroke-miterlimit:4;stroke-opacity:1;stroke-dasharray:none"
         inkscape:label="Face:58"
         id="path3926" />
      <path
         inkscape:connector-curvature="0"
         d="M -30.7768,-94.7214 -68.8191,-50 26.2866,-80.9017 z"
         style="fill:none;stroke:#76d735;stroke-width:0.9710412;stroke-linejoin:round;stroke-miterlimit:4;stroke-opacity:1;stroke-dasharray:none"
         inkscape:label="Face:32"
         id="path3928" />
      <path
         inkscape:connector-curvature="0"
         d="m -99.5959,0 30.7768,50 0,-100 z"
         style="fill:none;stroke:#76d735;stroke-width:0.9710412;stroke-linejoin:round;stroke-miterlimit:4;stroke-opacity:1;stroke-dasharray:none"
         inkscape:label="Face:35"
         id="path3930" />
      <path
         inkscape:connector-curvature="0"
         d="M -30.7768,94.7214 26.2866,80.9017 -68.8191,50 z"
         style="fill:none;stroke:#76d735;stroke-width:0.9710412;stroke-linejoin:round;stroke-miterlimit:4;stroke-opacity:1;stroke-dasharray:none"
         inkscape:label="Face:38"
         id="path3932" />
      <path
         inkscape:connector-curvature="0"
         d="M 80.5748,58.541 85.0651,0 26.2866,80.9017 z"
         style="fill:none;stroke:#76d735;stroke-width:0.9710412;stroke-linejoin:round;stroke-miterlimit:4;stroke-opacity:1;stroke-dasharray:none"
         inkscape:label="Face:41"
         id="path3934" />
      <path
         inkscape:connector-curvature="0"
         d="M 80.5748,-58.541 26.2866,-80.9017 85.0651,0 z"
         style="fill:none;stroke:#76d735;stroke-width:0.9710412;stroke-linejoin:round;stroke-miterlimit:4;stroke-opacity:1;stroke-dasharray:none"
         inkscape:label="Face:44"
         id="path3936" />
      <path
         inkscape:connector-curvature="0"
         d="M -19.0211,-58.541 0,0 26.2866,-80.9017 z"
         style="fill:none;stroke:#76d735;stroke-width:0.9710412;stroke-linejoin:round;stroke-miterlimit:4;stroke-opacity:1;stroke-dasharray:none"
         inkscape:label="Face:0"
         id="path3938" />
      <path
         inkscape:connector-curvature="0"
         d="M -19.0211,-58.541 26.2866,-80.9017 -68.8191,-50 z"
         style="fill:none;stroke:#76d735;stroke-width:0.9710412;stroke-linejoin:round;stroke-miterlimit:4;stroke-opacity:1;stroke-dasharray:none"
         inkscape:label="Face:1"
         id="path3940" />
      <path
         inkscape:connector-curvature="0"
         d="M -19.0211,-58.541 -68.8191,-50 0,0 z"
         style="fill:none;stroke:#76d735;stroke-width:0.9710412;stroke-linejoin:round;stroke-miterlimit:4;stroke-opacity:1;stroke-dasharray:none"
         inkscape:label="Face:2"
         id="path3942" />
      <path
         inkscape:connector-curvature="0"
         d="M -61.5537,0 0,0 -68.8191,-50 z"
         style="fill:none;stroke:#76d735;stroke-width:0.9710412;stroke-linejoin:round;stroke-miterlimit:4;stroke-opacity:1;stroke-dasharray:none"
         inkscape:label="Face:3"
         id="path3944" />
      <path
         inkscape:connector-curvature="0"
         d="m -61.5537,0 -7.2654,-50 0,100 z"
         style="fill:none;stroke:#76d735;stroke-width:0.9710412;stroke-linejoin:round;stroke-miterlimit:4;stroke-opacity:1;stroke-dasharray:none"
         inkscape:label="Face:4"
         id="path3946" />
      <path
         inkscape:connector-curvature="0"
         d="M -61.5537,0 -68.8191,50 0,0 z"
         style="fill:none;stroke:#76d735;stroke-width:0.9710412;stroke-linejoin:round;stroke-miterlimit:4;stroke-opacity:1;stroke-dasharray:none"
         inkscape:label="Face:5"
         id="path3948" />
      <path
         inkscape:connector-curvature="0"
         d="M -19.0211,58.541 0,0 -68.8191,50 z"
         style="fill:none;stroke:#76d735;stroke-width:0.9710412;stroke-linejoin:round;stroke-miterlimit:4;stroke-opacity:1;stroke-dasharray:none"
         inkscape:label="Face:6"
         id="path3950" />
      <path
         inkscape:connector-curvature="0"
         d="M -19.0211,58.541 -68.8191,50 26.2866,80.9017 z"
         style="fill:none;stroke:#76d735;stroke-width:0.9710412;stroke-linejoin:round;stroke-miterlimit:4;stroke-opacity:1;stroke-dasharray:none"
         inkscape:label="Face:7"
         id="path3952" />
      <path
         inkscape:connector-curvature="0"
         d="M -19.0211,58.541 26.2866,80.9017 0,0 z"
         style="fill:none;stroke:#76d735;stroke-width:0.9710412;stroke-linejoin:round;stroke-miterlimit:4;stroke-opacity:1;stroke-dasharray:none"
         inkscape:label="Face:8"
         id="path3954" />
      <path
         inkscape:connector-curvature="0"
         d="M 49.798,36.1803 0,0 26.2866,80.9017 z"
         style="fill:none;stroke:#76d735;stroke-width:0.9710412;stroke-linejoin:round;stroke-miterlimit:4;stroke-opacity:1;stroke-dasharray:none"
         inkscape:label="Face:9"
         id="path3956" />
      <path
         inkscape:connector-curvature="0"
         d="M 49.798,36.1803 26.2866,80.9017 85.0651,0 z"
         style="fill:none;stroke:#76d735;stroke-width:0.9710412;stroke-linejoin:round;stroke-miterlimit:4;stroke-opacity:1;stroke-dasharray:none"
         inkscape:label="Face:10"
         id="path3958" />
      <path
         inkscape:connector-curvature="0"
         d="M 49.798,36.1803 85.0651,0 0,0 z"
         style="fill:none;stroke:#76d735;stroke-width:0.9710412;stroke-linejoin:round;stroke-miterlimit:4;stroke-opacity:1;stroke-dasharray:none"
         inkscape:label="Face:11"
         id="path3960" />
      <path
         inkscape:connector-curvature="0"
         d="M 49.798,-36.1803 0,0 85.0651,0 z"
         style="fill:none;stroke:#76d735;stroke-width:0.9710412;stroke-linejoin:round;stroke-miterlimit:4;stroke-opacity:1;stroke-dasharray:none"
         inkscape:label="Face:12"
         id="path3962" />
      <path
         inkscape:connector-curvature="0"
         d="M 49.798,-36.1803 85.0651,0 26.2866,-80.9017 z"
         style="fill:none;stroke:#76d735;stroke-width:0.9710412;stroke-linejoin:round;stroke-miterlimit:4;stroke-opacity:1;stroke-dasharray:none"
         inkscape:label="Face:13"
         id="path3964" />
      <path
         inkscape:connector-curvature="0"
         d="M 49.798,-36.1803 26.2866,-80.9017 0,0 z"
         style="fill:none;stroke:#76d735;stroke-width:0.9710412;stroke-linejoin:round;stroke-miterlimit:4;stroke-opacity:1;stroke-dasharray:none"
         inkscape:label="Face:14"
         id="path3966" />
    </g>
    <g
       id="g4376"
       inkscape:label="Truncated Dodecahedron :x0.00:x0.00:x0.00:x0.00:x0.00:x0.00"
       transform="matrix(0.66848811,0,0,0.66848811,239.98942,771.85393)"
       style="fill:none;stroke:#66abf9;stroke-width:1.49591291;stroke-miterlimit:4;stroke-opacity:1;stroke-dasharray:none">
      <path
         id="path4378"
         inkscape:label="Face:7"
         style="fill:none;stroke:#66abf9;stroke-width:1.49591291;stroke-linejoin:round;stroke-miterlimit:4;stroke-opacity:1;stroke-dasharray:none"
         d="m 42.53254,-292.7051 -85.06508,0 -95.10565,30.9017 -68.8191,50 -16.24598,50 42.53254,30.9017 85.065078,0 L 0,-161.8034 l 68.819096,-50 16.245985,-50 z"
         inkscape:connector-curvature="0" />
      <path
         id="path4380"
         inkscape:label="Face:8"
         style="fill:none;stroke:#66abf9;stroke-width:1.49591291;stroke-linejoin:round;stroke-miterlimit:4;stroke-opacity:1;stroke-dasharray:none"
         d="M -265.23581,-130.9017 -291.52237,-50 l 0,100 26.28656,80.9017 42.53254,30.9017 42.53254,-30.9017 26.28655,-80.9017 0,-100 -26.28655,-80.9017 -42.53254,-30.9017 z"
         inkscape:connector-curvature="0" />
      <path
         id="path4382"
         inkscape:label="Face:9"
         style="fill:none;stroke:#66abf9;stroke-width:1.49591291;stroke-linejoin:round;stroke-miterlimit:4;stroke-opacity:1;stroke-dasharray:none"
         d="m -206.45729,211.8034 68.8191,50 95.10565,30.9017 85.06508,0 42.532541,-30.9017 -16.245985,-50 -68.819096,-50 -95.105652,-30.9017 -85.065078,0 -42.53254,30.9017 z"
         inkscape:connector-curvature="0" />
      <path
         id="path4384"
         inkscape:label="Face:10"
         style="fill:none;stroke:#66abf9;stroke-width:1.49591291;stroke-linejoin:round;stroke-miterlimit:4;stroke-opacity:1;stroke-dasharray:none"
         d="m 137.63819,261.8034 68.8191,-50 58.77852,-80.9017 L 291.52237,50 275.27638,0 l -52.57311,0 -68.81909,50 -58.778528,80.9017 -26.286556,80.9017 16.245985,50 z"
         inkscape:connector-curvature="0" />
      <path
         id="path4386"
         inkscape:label="Face:11"
         style="fill:none;stroke:#66abf9;stroke-width:1.49591291;stroke-linejoin:round;stroke-miterlimit:4;stroke-opacity:1;stroke-dasharray:none"
         d="m 291.52237,-50 -26.28656,-80.9017 -58.77852,-80.9017 -68.8191,-50 -52.573109,0 -16.245985,50 26.286556,80.9017 L 153.88418,-50 222.70327,0 275.27638,0 z"
         inkscape:connector-curvature="0" />
      <path
         id="path4388"
         inkscape:label="Face:16"
         style="fill:none;stroke:#66abf9;stroke-width:1.49591291;stroke-linejoin:round;stroke-miterlimit:4;stroke-opacity:1;stroke-dasharray:none"
         d="m -206.45729,211.8034 -16.24598,-50 -42.53254,-30.9017 z"
         inkscape:connector-curvature="0" />
      <path
         id="path4390"
         inkscape:label="Face:17"
         style="fill:none;stroke:#66abf9;stroke-width:1.49591291;stroke-linejoin:round;stroke-miterlimit:4;stroke-opacity:1;stroke-dasharray:none"
         d="m -265.23581,-130.9017 42.53254,-30.9017 16.24598,-50 z"
         inkscape:connector-curvature="0" />
      <path
         id="path4392"
         inkscape:label="Face:31"
         style="fill:none;stroke:#66abf9;stroke-width:1.49591291;stroke-linejoin:round;stroke-miterlimit:4;stroke-opacity:1;stroke-dasharray:none"
         d="m 137.63819,-261.8034 -95.10565,-30.9017 42.532541,30.9017 z"
         inkscape:connector-curvature="0" />
      <path
         id="path4394"
         inkscape:label="Face:13"
         style="fill:none;stroke:#66abf9;stroke-width:1.49591291;stroke-linejoin:round;stroke-miterlimit:4;stroke-opacity:1;stroke-dasharray:none"
         d="m 275.27638,0 16.24599,50 0,-100 z"
         inkscape:connector-curvature="0" />
      <path
         id="path4396"
         inkscape:label="Face:30"
         style="fill:none;stroke:#66abf9;stroke-width:1.49591291;stroke-linejoin:round;stroke-miterlimit:4;stroke-opacity:1;stroke-dasharray:none"
         d="M 85.065081,261.8034 42.53254,292.7051 137.63819,261.8034 z"
         inkscape:connector-curvature="0" />
      <path
         id="path4398"
         inkscape:label="Face:21"
         style="fill:none;stroke:#66abf9;stroke-width:1.49591291;stroke-linejoin:round;stroke-miterlimit:4;stroke-opacity:1;stroke-dasharray:none"
         d="M -180.17073,-130.9017 -153.88418,-50 -95.105652,-130.9017 z"
         inkscape:connector-curvature="0" />
      <path
         id="path4400"
         inkscape:label="Face:29"
         style="fill:none;stroke:#66abf9;stroke-width:1.49591291;stroke-linejoin:round;stroke-miterlimit:4;stroke-opacity:1;stroke-dasharray:none"
         d="M 68.819096,-211.8034 0,-161.8034 95.105652,-130.9017 z"
         inkscape:connector-curvature="0" />
      <path
         id="path4402"
         inkscape:label="Face:0"
         style="fill:none;stroke:#66abf9;stroke-width:1.49591291;stroke-linejoin:round;stroke-miterlimit:4;stroke-opacity:1;stroke-dasharray:none"
         d="m 0,-161.8034 -95.105652,30.9017 -58.778528,80.9017 0,100 58.778528,80.9017 L 0,161.8034 95.105652,130.9017 153.88418,50 l 0,-100 -58.778528,-80.9017 z"
         inkscape:connector-curvature="0" />
      <path
         id="path4404"
         inkscape:label="Face:15"
         style="fill:none;stroke:#66abf9;stroke-width:1.49591291;stroke-linejoin:round;stroke-miterlimit:4;stroke-opacity:1;stroke-dasharray:none"
         d="m 153.88418,-50 0,100 68.81909,-50 z"
         inkscape:connector-curvature="0" />
      <path
         id="path4406"
         inkscape:label="Face:20"
         style="fill:none;stroke:#66abf9;stroke-width:1.49591291;stroke-linejoin:round;stroke-miterlimit:4;stroke-opacity:1;stroke-dasharray:none"
         d="M -95.105652,130.9017 -153.88418,50 l -26.28655,80.9017 z"
         inkscape:connector-curvature="0" />
      <path
         id="path4408"
         inkscape:label="Face:28"
         style="fill:none;stroke:#66abf9;stroke-width:1.49591291;stroke-linejoin:round;stroke-miterlimit:4;stroke-opacity:1;stroke-dasharray:none"
         d="M 95.105652,130.9017 0,161.8034 l 68.819096,50 z"
         inkscape:connector-curvature="0" />
    </g>
    <path
       inkscape:connector-curvature="0"
       style="fill:none;stroke:#c60a0a;stroke-width:1;stroke-miterlimit:4;stroke-opacity:1;stroke-dasharray:none"
       d="m 346.30649,769.84319 c 0.0214,1.22086 0.716,2.43235 2.00526,4.01658 1.28927,1.58423 3.17121,3.5456 5.40826,6.20073 2.23701,2.65513 4.8258,6.00733 7.40829,10.24948 2.58252,4.24201 5.15446,9.37578 7.2955,15.43089 2.14091,6.05511 3.84623,13.03169 4.70207,20.78269 0.85587,7.75101 0.85796,16.27475 -0.33162,25.26163 -1.18958,8.98688 -3.57416,18.43366 -7.35701,27.90815 -3.78282,9.47435 -8.96562,18.97205 -15.57768,27.99764 -6.61207,9.02575 -14.65341,17.57446 -23.96555,25.15878 -9.31215,7.58433 -19.89324,14.19971 -31.41167,19.4366 -11.51842,5.23702 -23.9707,9.09206 -36.89219,11.29505 -12.92149,2.20232 -26.30765,2.75074 -39.62134,1.55407 -13.31362,-1.19765 -26.54984,-4.13993 -39.17031,-8.72497 -12.62047,-4.58497 -24.62057,-10.81043 -35.53283,-18.39171 -10.91219,-7.58143 -20.73301,-16.51519 -29.12722,-26.37503 -8.39422,-9.85976 -15.359953,-20.64093 -20.736553,-31.83449 -5.37666,-11.19356 -9.16406,-22.79456 -11.39282,-34.28249 -2.22867,-11.48793 -2.90043,-22.85805 -2.22519,-33.64974 0.67528,-10.79159 2.69414,-21.00137 5.70484,-30.28968 3.01071,-9.28831 7.00885,-17.65327 11.55866,-24.91933 4.549803,-7.26607 9.646573,-13.43288 14.839833,-18.50533 5.19327,-5.07246 10.47866,-9.05232 15.46119,-12.1137 4.98242,-3.06138 9.65854,-5.20759 13.74889,-6.74532 4.09028,-1.53787 7.59279,-2.47172 10.38441,-3.18383 2.79168,-0.71226 4.8723,-1.20753 6.291,-1.87583 1.41864,-0.6683 2.17696,-1.51403 2.48409,-2.8659 0.30714,-1.35174 0.16637,-3.21308 -0.0903,-5.79267 -0.25718,-2.57944 -0.62636,-5.87923 -0.71099,-9.94859 -0.0852,-4.06936 0.11978,-8.90858 1.0066,-14.39366 0.88682,-5.48507 2.46018,-11.61419 5.04105,-18.10397 2.58101,-6.48979 6.1727,-13.33689 10.96533,-20.137 4.79263,-6.80012 10.78814,-13.54906 18.00674,-19.78128 7.2186,-6.23208 15.66037,-11.9427 25.16259,-16.67485 9.50219,-4.73202 20.06295,-8.48106 31.35088,-10.86884 11.28784,-2.38763 23.29955,-3.4106 35.5749,-2.82868 12.27534,0.58178 24.81005,2.77032 37.07614,6.62714 12.26595,3.85681 24.25832,9.3818 35.45221,16.44397 11.19389,7.06203 21.58469,15.65942 30.72233,25.4818 9.1375,9.82235 17.01847,20.86631 23.32841,32.68248 6.31007,11.81603 11.04727,24.39988 14.07515,37.22286 3.02787,12.82298 4.34642,25.88012 4.01265,38.6351 -0.33363,12.75494 -2.31773,25.20323 -5.71356,36.87228 -3.39583,11.66904 -8.19997,22.55547 -14.0306,32.31263 -5.83062,9.75706 -12.68314,18.38275 -20.09116,25.69865 -7.4079,7.31591 -15.36648,13.32181 -23.39432,18.02431 -8.02769,4.70239 -16.12034,8.10315 -23.85238,10.38256 -7.73204,2.2794 -15.09999,3.44083 -21.7953,3.8018 -6.69545,0.36089 -12.71613,-0.0741 -17.91197,-0.90862 -5.19584,-0.83424 -9.56652,-2.06267 -13.13636,-3.27677 -3.56998,-1.21407 -6.34062,-2.40947 -8.49948,-3.23538 -2.15899,-0.8259 -3.70925,-1.27895 -4.96423,-1.12523 -1.25512,0.15371 -2.21916,0.91592 -3.2743,2.36384 -1.05515,1.44795 -2.20616,3.58159 -3.83574,6.30628 -1.62971,2.72469 -3.74237,6.03877 -6.65299,9.68908 -2.91076,3.65031 -6.62278,7.63357 -11.32506,11.57655 -4.70224,3.94297 -10.39649,7.84153 -17.10647,11.26064 -6.70984,3.41922 -14.43556,6.35444 -23.02182,8.3787 -8.58639,2.02412 -18.03146,3.13297 -28.01605,2.97644 -9.98459,-0.15639 -20.50517,-1.5815 -31.11808,-4.48873 -10.61292,-2.90724 -21.31364,-7.29856 -31.59381,-13.21165 -10.28023,-5.91309 -20.13526,-13.34795 -29.063203,-22.15273 -8.92782,-8.80477 -16.92415,-18.9776 -23.56469,-30.19123 -6.64047,-11.21368 -11.92155,-23.46475 -15.55738,-36.29071 -3.6357,-12.82596 -5.62415,-26.2224 -5.85865,-39.65191 -0.23436,-13.42938 1.28533,-26.88711 4.47127,-39.83217 3.18595,-12.94495 8.03623,-25.37286 14.28132,-36.81146 6.24508,-11.43861 13.88149,-21.88436 22.49674,-30.99543 8.61525,-9.11093 18.204703,-16.88514 28.272293,-23.15337 10.0676,-6.26823 20.60852,-11.03029 31.11357,-14.30622 10.50492,-3.2759 20.96937,-5.06727 30.94243,-5.57205 9.97305,-0.50479 19.45119,0.27362 28.10281,1.99688 8.65176,1.72339 16.47512,4.38712 23.30037,7.57016 6.82512,3.1829 12.65194,6.88029 17.48902,10.65681 4.83694,3.77651 8.68576,7.62769 11.72209,11.17426 3.03633,3.54645 5.26334,6.78478 6.98706,9.45092 1.72373,2.66628 2.9485,4.7583 4.05349,6.1686 1.10513,1.41015 2.09516,2.13845 3.35472,2.24819 1.25963,0.10988 2.79319,-0.39709 4.92198,-1.29777 2.12878,-0.90082 4.85611,-2.1921 8.38141,-3.53012 3.52531,-1.33802 7.85054,-2.71827 13.01401,-3.7332 5.16362,-1.01508 11.16548,-1.66019 17.86936,-1.53325 6.70388,0.12711 14.10782,1.03068 21.91477,3.03892 7.80681,2.00824 16.01314,5.12445 24.20019,9.54385 8.18704,4.4194 16.35032,10.14392 24.00915,17.19679 7.65868,7.05301 14.80817,15.4342 20.97574,24.98186 6.16757,9.54767 11.34871,20.2598 15.14964,31.80328 3.80108,11.54347 6.21838,23.91487 6.99708,36.65046 0.77856,12.7355 -0.0838,25.83078 -2.662,38.75153 -2.57849,12.92089 -6.87358,25.66227 -12.76741,37.69141 -5.89384,12.02914 -13.38447,23.3414 -22.17371,33.47675 -8.78925,10.13521 -18.87373,19.08998 -29.8143,26.53848 -10.94056,7.4485 -22.73281,13.38873 -34.85668,17.67115 -12.12401,4.28254 -24.57466,6.90725 -36.82232,7.91711 -12.24752,1.01 -24.28755,0.40686 -35.6519,-1.58546 -11.36434,-1.99232 -22.0496,-5.37054 -31.71114,-9.76811 -9.66155,-4.39756 -18.29749,-9.81004 -25.72928,-15.78652 -7.43165,-5.97649 -13.65894,-12.51198 -18.68606,-19.1408 -5.02698,-6.62869 -8.85555,-13.34618 -11.6613,-19.74202 -2.80589,-6.39571 -4.59226,-12.4663 -5.66987,-17.91707 -1.07773,-5.45076 -1.45101,-10.27987 -1.50833,-14.34974 -0.0573,-4.06987 0.19642,-7.38048 0.36337,-9.96744 0.16695,-2.58696 0.24268,-4.45194 -0.11148,-5.79225 -0.35406,-1.34023 -1.14143,-2.15899 -2.58259,-2.77742 -1.44111,-0.61829 -3.53779,-1.04071 -6.35261,-1.65506 -2.81468,-0.61434 -6.34774,-1.42536 -10.48918,-2.81942 -4.14144,-1.39419 -8.88962,-3.37595 -13.97598,-6.26152 -5.08631,-2.88556 -10.50736,-6.67853 -15.87441,-11.56667 -5.36719,-4.88815 -10.67609,-10.87341 -15.476703,-17.97612 -4.80063,-7.10285 -9.08826,-15.32327 -12.42127,-24.50085 -3.333,-9.17759 -5.70704,-19.31062 -6.75847,-30.07212 -1.05144,-10.76158 -0.77691,-22.14821 1.04949,-33.70684 1.82645,-11.55877 5.20664,-23.28494 10.18942,-34.65933 4.98265,-11.37438 11.567843,-22.39204 19.612893,-32.53881 8.04505,-10.14662 17.5481,-19.41776 28.18905,-27.37534 10.64101,-7.95757 22.41654,-14.59808 34.86927,-19.62071 12.45273,-5.02263 25.57832,-8.42541 38.84197,-10.08638 13.26379,-1.6611 26.66105,-1.58013 39.65146,0.17025 12.99055,1.75052 25.56975,5.16871 37.26384,10.0005 11.69424,4.83178 22.49968,11.07385 32.07088,18.32848 9.5712,7.25478 17.90598,15.51765 24.82901,24.30704 6.92303,8.7894 12.43424,18.10043 16.54528,27.43701 4.11118,9.33671 6.82412,18.69441 8.32661,27.63442 1.5025,8.93986 1.79789,17.45849 1.21292,25.23468 -0.58484,7.77614 -2.04554,14.8079 -3.9739,20.93405 -1.92836,6.12618 -4.31959,11.34663 -6.75247,15.67619 -2.43288,4.3297 -4.90309,7.77012 -7.04617,10.50175 -2.14294,2.73163 -3.95535,4.75737 -5.18843,6.38572 -1.23321,1.62822 -1.8852,2.86323 -1.86389,4.08399 z"
       id="path6333" />
  </g>
</svg>
